Coordinates
version=1
nRows=11
nColumns=40
inDegrees=yes

Units are S.I. units (second, meters, Newtons, ...)
If the header above contains a line with 'inDegrees', this indicates whether rotational values are in degrees (yes) or radians (no).

endheader
time	pelvis_tilt	pelvis_list	pelvis_rotation	pelvis_tx	pelvis_ty	pelvis_tz	hip_flexion_r	hip_adduction_r	hip_rotation_r	knee_angle_r	knee_angle_r_beta	ankle_angle_r	subtalar_angle_r	mtp_angle_r	hip_flexion_l	hip_adduction_l	hip_rotation_l	knee_angle_l	knee_angle_l_beta	ankle_angle_l	subtalar_angle_l	mtp_angle_l	lumbar_extension	lumbar_bending	lumbar_rotation	arm_flex_r	arm_add_r	arm_rot_r	elbow_flex_r	pro_sup_r	wrist_flex_r	wrist_dev_r	arm_flex_l	arm_add_l	arm_rot_l	elbow_flex_l	pro_sup_l	wrist_flex_l	wrist_dev_l
      9.38000000	     37.01521806	     -5.68356118	   -178.65592074	      0.26889377	      0.93526976	     -0.56445582	     64.02386187	    -14.14641008	      0.63363343	     33.23472411	      0.58005536	      8.08420598	      0.00000000	      0.00000000	     57.66470720	      0.88795265	     -3.15802373	     26.95854517	      0.47051537	      7.22131666	      0.00000000	      0.00000000	     20.72213236	     -5.16406358	     -1.63977106	      9.71360034	    -13.50732758	     31.10208386	     22.87177585	     89.10688091	      0.00000000	      0.00000000	     15.03720265	    -17.77132210	     56.63144383	     24.58582200	     87.06194848	      0.00000000	      0.00000000
      9.38500000	     38.05038124	     -5.64619390	   -178.79105989	      0.27002988	      0.93387775	     -0.56488601	     65.04890882	    -13.90388667	      0.65161032	     32.97688968	      0.57555530	      7.69335942	      0.00000000	      0.00000000	     58.68342173	      0.67289901	     -3.12410548	     26.72781546	      0.46648838	      6.97051132	      0.00000000	      0.00000000	     22.38753615	     -5.10993061	     -1.17242463	      8.91802478	    -13.51599721	     29.84119191	     23.32706897	     89.11248878	      0.00000000	      0.00000000	     14.54735125	    -17.95534606	     56.08767319	     25.13157196	     87.04245451	      0.00000000	      0.00000000
      9.39000000	     37.99951541	     -5.65735978	   -178.71540818	      0.27030350	      0.93405375	     -0.56456680	     64.94247733	    -14.02940746	      0.54409375	     32.94350784	      0.57497268	      7.72548484	      0.00000000	      0.00000000	     58.65551313	      0.74606037	     -3.08579708	     26.75759786	      0.46700818	      6.92603216	      0.00000000	      0.00000000	     22.72400133	     -5.16311151	     -1.26002620	      8.82457387	    -13.51341013	     29.79346719	     23.33158978	     89.11009798	      0.00000000	      0.00000000	     14.41833555	    -17.96016094	     56.09032347	     25.11592571	     87.04634311	      0.00000000	      0.00000000
      9.39500000	     38.69361373	     -5.78308326	   -178.86099158	      0.27122184	      0.93303055	     -0.56500046	     65.67678712	    -13.88928159	      0.75545179	     32.76672332	      0.57188721	      7.55717643	      0.00000000	      0.00000000	     59.34368598	      0.62845255	     -3.21071937	     26.61927319	      0.46459396	      6.72563131	      0.00000000	      0.00000000	     23.97506924	     -5.27230061	     -0.77501153	      8.19737288	    -13.42261552	     28.59484182	     23.61838677	     89.11750780	      0.00000000	      0.00000000	     14.07268976	    -18.07901437	     55.57291075	     25.44960002	     87.06967575	      0.00000000	      0.00000000
      9.40000000	     38.67077134	     -5.84110440	   -178.84421356	      0.27180006	      0.93304297	     -0.56496022	     65.63503355	    -13.98393479	      0.60946627	     32.69312084	      0.57060260	      7.60374013	      0.00000000	      0.00000000	     59.35343294	      0.66999367	     -3.17208985	     26.61557700	      0.46452945	      6.66219791	      0.00000000	      0.00000000	     24.32097537	     -5.36287768	     -0.71025895	      8.09650464	    -13.39321700	     28.45029463	     23.63325768	     89.11944568	      0.00000000	      0.00000000	     14.01530053	    -18.09805235	     55.50783071	     25.46917141	     87.08000507	      0.00000000	      0.00000000
      9.40500000	     39.00590906	     -5.96569490	   -178.98128521	      0.27278040	      0.93246128	     -0.56531856	     66.01845258	    -13.82170833	      1.04297238	     32.56059236	      0.56828954	      7.50617407	      0.00000000	      0.00000000	     59.69821797	      0.57887881	     -3.28758746	     26.50825465	      0.46265632	      6.51457874	      0.00000000	      0.00000000	     25.08945254	     -5.46129667	     -0.29276610	      7.65056085	    -13.29437762	     27.31447675	     23.89972660	     89.12299318	      0.00000000	      0.00000000	     13.83533160	    -18.16328159	     55.11079944	     25.70497450	     87.12001832	      0.00000000	      0.00000000
      9.41000000	     39.08161064	     -6.19429648	   -179.04004426	      0.27362383	      0.93218784	     -0.56559660	     66.19449191	    -13.84934612	      1.39122825	     32.53092879	      0.56777182	      7.45618510	      0.00000000	      0.00000000	     59.82772093	      0.63324070	     -3.46483596	     26.52922985	      0.46302241	      6.40437185	      0.00000000	      0.00000000	     25.53108413	     -5.71219403	      0.04646286	      7.42391148	    -13.05679735	     26.29077973	     23.85661306	     89.12974422	      0.00000000	      0.00000000	     13.76084937	    -18.18207557	     54.72645353	     25.78180214	     87.15933591	      0.00000000	      0.00000000
      9.41500000	     38.97388818	     -6.20595912	   -178.90573657	      0.27430972	      0.93213424	     -0.56544391	     66.11431449	    -13.98766831	      1.36660910	     32.54610976	      0.56803677	      7.50585264	      0.00000000	      0.00000000	     59.80928732	      0.76146766	     -3.31707206	     26.57874316	      0.46388658	      6.31354620	      0.00000000	      0.00000000	     25.73033917	     -5.82228559	     -0.00904073	      7.37077819	    -13.04443717	     26.22552588	     23.89285415	     89.12666732	      0.00000000	      0.00000000	     13.76077304	    -18.19854329	     54.70313737	     25.78138732	     87.16210303	      0.00000000	      0.00000000
      9.42000000	     38.93323546	     -6.52138584	   -179.06889545	      0.27536752	      0.93191924	     -0.56598501	     66.26690821	    -13.93524041	      1.94216679	     32.55962344	      0.56827263	      7.49301900	      0.00000000	      0.00000000	     59.77007701	      0.79285662	     -3.61768248	     26.48471547	      0.46224549	      6.21253963	      0.00000000	      0.00000000	     26.00355386	     -6.12496284	      0.53090949	      7.13896368	    -12.84671627	     25.15555881	     23.98416206	     89.13381886	      0.00000000	      0.00000000	     13.78496581	    -18.24732531	     54.36246125	     25.93879223	     87.18391038	      0.00000000	      0.00000000
      9.42500000	     38.74850617	     -6.56463066	   -178.96102448	      0.27623094	      0.93177275	     -0.56595103	     66.19456565	    -14.05463107	      1.97123787	     32.67454095	      0.57027832	      7.59026378	      0.00000000	      0.00000000	     59.69069004	      0.93265781	     -3.46087344	     26.55118009	      0.46340551	      6.17159722	      0.00000000	      0.00000000	     26.08705677	     -6.26752463	      0.57762670	      7.10408538	    -12.84984622	     25.07892040	     24.03713316	     89.13188928	      0.00000000	      0.00000000	     13.85103556	    -18.26363729	     54.31957710	     25.98300323	     87.18346720	      0.00000000	      0.00000000
      9.43000000	     38.55095664	     -6.59411550	   -178.86989335	      0.27725003	      0.93155706	     -0.56617804	     66.12152496	    -14.13512555	      2.01558486	     32.78477858	      0.57220233	      7.66767233	      0.00000000	      0.00000000	     59.62238684	      1.02605404	     -3.34664535	     26.64882078	      0.46510966	      6.14063343	      0.00000000	      0.00000000	     26.13127718	     -6.41312355	      0.61253309	      7.07577511	    -12.81654583	     24.99128942	     24.12860443	     89.13247867	      0.00000000	      0.00000000	     13.94729372	    -18.32072391	     54.27030982	     26.02188044	     87.17881081	      0.00000000	      0.00000000
